<?xml version="1.0" standalone="no"?>
<!DOCTYPE svg PUBLIC "-//W3C//DTD SVG 1.1//EN" "http://www.w3.org/Graphics/SVG/1.1/DTD/svg11.dtd" >
<svg xmlns="http://www.w3.org/2000/svg" xmlns:xlink="http://www.w3.org/1999/xlink" version="1.1" viewBox="-10 0 650 512">
   <path fill="currentColor"
d="M43 245q-42 44 -42 102v0q0 57 42 101q42 41 97 42q55 2 99 -35l6 -6l-31 -36l-6 6q-30 25 -67 23q-36 -1 -64 -28q-28 -29 -28 -67q0 -39 28 -68l113 -114q30 -28 68 -28t68 28q26 28 28 65q1 37 -24 66l-5 6l36 32l5 -6q37 -45 36 -100q-2 -54 -42 -97
q-45 -42 -102 -42q-58 0 -102 42l-113 114v0zM563 267q42 -44 42 -102v0q0 -57 -42 -101q-42 -40 -97 -42q-54 -2 -99 35l-6 6l31 36l7 -6q29 -25 66 -23q36 1 64 28q28 29 28 67q0 39 -28 68l-113 114q-29 28 -68 28q-38 0 -67 -28q-27 -28 -29 -65q-1 -37 24 -66l5 -6
l-36 -31l-5 5q-37 45 -35 100q1 54 42 97q44 42 101 42q58 0 102 -42l113 -114v0z" />
</svg>
